<?xml version="1.0" encoding="utf-8"?>
<!-- Generator: Adobe Illustrator 16.0.0, SVG Export Plug-In . SVG Version: 6.00 Build 0)  -->
<!DOCTYPE svg PUBLIC "-//W3C//DTD SVG 1.1//EN" "http://www.w3.org/Graphics/SVG/1.1/DTD/svg11.dtd">
<svg version="1.1" id="Warstwa_3" xmlns="http://www.w3.org/2000/svg" xmlns:xlink="http://www.w3.org/1999/xlink" x="0px" y="0px"
	 width="850.394px" height="850.394px" viewBox="0 0 850.394 850.394" enable-background="new 0 0 850.394 850.394"
	 xml:space="preserve">
<g>
	<path fill="#FFFFFF" d="M525.679,734.495c-2.371,0-5.603-2.093-11.583-6.102c-4.459-2.989-9.513-6.377-12.826-7.425
		c-1.304-0.413-3.196-0.613-5.789-0.613c-1.834,0-3.793,0.093-5.866,0.192c-2.125,0.101-4.323,0.205-6.438,0.205
		c-4.757,0-7.979-0.542-10.446-1.756c-3.408-1.679-2.18-5.957-1.192-9.395c0.393-1.365,1.041-3.624,0.899-4.383
		c-2.772-3.757-18.82-8.278-26.564-10.461c-2.245-0.632-4.184-1.179-5.565-1.617c-1.845-0.585-4.139-1.313-3.816-3.648
		c0.324-2.344,2.839-2.344,3.666-2.344c0.236,0,0.507,0.005,0.813,0.015c0.666,0.022,1.379,0.033,2.132,0.033
		c9.036,0,25.188-1.656,34.322-5.191c-4.359-1.921-13.561-4.567-18.496-5.986c-2.637-0.759-4.914-1.414-6.59-1.947
		c-2.395-0.761-4.655-1.479-4.324-3.828c0.097-0.688,0.604-2.287,3.204-2.287c0.46,0,1.063,0.032,1.841,0.099
		c0.406,0.034,0.896,0.052,1.455,0.052c8.133,0,18.23-2.739,19.182-4.639c-7.063-17.85-10.593-43.562-14.007-68.428
		c-4.794-34.908-9.75-71.004-24.212-85.171c-22.299-21.845-79.249-24.79-132.018-24.79c-9.901,0-19.643,0.102-29.064,0.2
		c-8.786,0.092-17.084,0.179-24.955,0.179c-10.54,0-18.612-0.16-25.404-0.504c-1.829-0.093-3.833-0.14-5.957-0.14
		c-57.198,0-200.573,33.582-202.015,33.921c-0.188,0.044-0.381,0.066-0.573,0.066c-0.239,0-0.478-0.034-0.708-0.103
		c-2.183-0.645-5.859-2.723-5.796-6.42c0.057-3.386,4.622-5.722,14.113-10.27c2.947-1.412,7.039-3.372,9.216-4.765
		c-2.529-1.274-7.196-3.101-10.01-4.202c-8.092-3.166-9.55-3.736-9.46-6c0.045-1.131,0.8-2.081,1.923-2.42
		c25.839-7.81,79.834-21.589,132.051-34.913c31.599-8.064,61.446-15.681,81.818-21.166c80.303-21.618,212.51-84.375,251.877-145.977
		c2.356-3.688,3.498-4.754,5.087-4.754c1.003,0,1.919,0.556,2.39,1.451c0.309,0.585,0.896,1.7-1.205,7.397
		c3.463-7.811,6.51-14.171,10.993-19.594c8.516-10.301,22.227-17.276,35.485-24.022c12.451-6.335,24.212-12.318,28.724-19.916
		c5.658-9.53,13.313-24.882,20.715-39.729c6.839-13.716,13.299-26.672,18.315-35.409c10.961-19.091,40.977-29.297,58.478-31.5
		c3.116-0.392,6.225-0.591,9.24-0.591c27.138,0,44.692,15.661,58.798,28.244c4.174,3.724,8.117,7.241,11.826,9.89
		c11.038,7.882,38.127,16.438,52.689,19.101c11.303,2.067,25.673,11.112,31.326,14.905c6.893,4.625,18.399,13.007,18.021,17.187
		c-0.126,1.388-1.213,2.79-3.356,2.79l0,0c-0.722,0-1.596-0.16-2.673-0.487c-18.534-5.644-43.501-11.864-60.597-15.519
		c28.896,10.672,47.769,15.007,56.542,17.023c6.821,1.567,8.441,1.939,8.386,4.41c-0.056,2.458-1.994,2.812-7.746,3.86
		c-4.324,0.789-9.548,1.171-15.967,1.171c-9.619,0-20.527-0.867-31.076-1.706c-10.262-0.816-19.955-1.586-28.247-1.586
		c-5.399,0-9.61,0.331-12.876,1.011c-18.159,3.783-43.366,46.948-42.431,66.667c1.853,39.071-16.302,92.908-46.25,137.155
		c-36.369,53.735-84.877,86.386-136.587,91.937c-14.796,1.589-22.976,44.582-24.619,65.154
		c-1.648,20.599,4.964,68.662,17.973,77.723c12.822,8.931,55.427,18.952,78.315,24.337c5.019,1.181,9.353,2.2,12.354,2.965
		c4.673,1.191,6.807,1.735,6.519,4.215c-0.102,0.876-0.665,2.345-3.296,2.345c-0.714,0-1.789-0.065-3.288-0.198
		c-9.337-0.83-17.315-1.234-24.392-1.234c-7.751,0-14.522,0.5-20.192,1.487c1.902,1.749,3.527,3.455,3.368,5.504
		c-0.181,2.36-2.574,3.863-4.89,5.316c-0.25,0.157-0.542,0.34-0.831,0.527c6.316,4.097,23.471,9.839,34.131,13.408
		c3.544,1.186,6.605,2.211,8.799,3.006c3.137,1.137,5.402,1.957,5.02,4.311c-0.061,0.369-0.487,2.215-2.978,2.215
		c-0.438,0-1.002-0.043-1.772-0.136c-4.849-0.586-10.189-1.403-15.845-2.269c-13.091-2.003-27.929-4.274-41.07-4.274
		c-6.05,0-11.183,0.467-15.668,1.426c-0.154,1.545,1.038,5.593,1.637,7.624c0.579,1.965,1.079,3.661,1.239,4.953
		c0.193,1.545-0.327,2.506-0.799,3.04C527.606,734.105,526.7,734.495,525.679,734.495z M346.304,441.027
		c7.187,0.265,15.056,0.569,23.476,0.895c41.551,1.607,93.261,3.608,135.511,3.607c41.292,0,65.599-1.937,72.245-5.756
		c35.948-20.651,65.434-69.859,75.796-105.096c-12.779,31.192-39.023,86.74-77.398,104.651c-8.148,3.802-29.48,5.572-67.134,5.572
		c-30.324,0-66.868-1.179-99.111-2.219C385.912,441.914,363.302,441.185,346.304,441.027z M307.763,440.003
		c0.634,0.031,1.396,0.051,2.308,0.051c0.292,0,0.591,0.001,0.896,0.002c-0.051-0.141-0.093-0.291-0.124-0.452
		c-0.084-0.429-0.113-0.818-0.047-1.194C309.629,438.988,308.606,439.523,307.763,440.003z M423.59,377.129
		c-1.929,1.765-3.863,3.465-5.798,5.096c-9.359,7.889-20.982,15.229-33.182,21.896c13.231-6.777,25.388-14.146,33.331-21.6
		C419.884,380.698,421.766,378.901,423.59,377.129z M480.851,299.947c-3.441,6.939-10.009,19.284-19.231,32.728
		c-5.104,7.44-10.459,14.528-15.975,21.164C464.652,331.772,474.195,314.257,480.851,299.947z M689.285,157.236
		c-1.158,0-2.45,0.143-3.842,0.424c-1.978,0.4-3.611,2.278-4.633,3.783c-1.32,1.946-1.46,4.762-0.331,6.696
		c1.1,1.884,3.232,3.63,5.567,4.556c0.94,0.374,2.077,0.563,3.379,0.563c1.597,0,3.479-0.281,5.755-0.86
		c2.413-0.613,3.391-2.958,3.495-4.78c0.213-3.718-1.184-6.786-4.04-8.873C693.247,157.73,691.497,157.236,689.285,157.236z"/>
	<path fill="#606060" d="M668.735,118.4c34.241,0.001,52.938,26.078,69.171,37.668c11.623,8.3,39.644,16.956,53.692,19.526
		c19.201,3.511,53.171,29.922,46.44,29.922c-0.456,0-1.099-0.121-1.944-0.379c-29.125-8.869-72.535-18.808-79.828-18.807
		c-1.874,0-1.364,0.656,2.385,2.156c67.657,27.055,90.424,23.155,72.852,26.358c-4.489,0.818-9.771,1.131-15.519,1.131
		c-18.648,0-42.18-3.292-59.324-3.292c-5.134,0-9.699,0.295-13.385,1.063c-19.553,4.073-45.393,48.692-44.418,69.233
		c3.417,72.077-65.409,214.122-180.606,226.488c-18.354,1.971-25.681,52.869-26.845,67.44c-1.658,20.719,4.966,70.173,19.036,79.974
		c19.906,13.865,105.335,29.31,95.32,29.31c-0.631,0-1.64-0.062-3.066-0.188c-7.954-0.707-16.419-1.244-24.613-1.244
		c-8.777,0-17.244,0.616-24.436,2.297c-2.11,0.492,5.287,4.84,5.119,7.001c-0.178,2.322-8.264,4.968-6.59,6.59
		c7.599,7.363,54.207,19.887,48.333,19.887c-0.325,0-0.812-0.038-1.474-0.118c-16.147-1.949-38.229-6.561-57.214-6.561
		c-5.979,0-11.655,0.458-16.736,1.601c-3.727,0.839,0.991,11.418,1.464,15.211c0.116,0.932-0.208,1.329-0.871,1.329
		c-3.509,0-16.483-11.143-23.655-13.41c-1.77-0.561-4.034-0.729-6.543-0.729c-3.841,0-8.248,0.397-12.305,0.397
		c-3.604,0-6.935-0.314-9.342-1.499c-2.888-1.422,2.547-10.195,0.731-12.853c-5.024-7.362-42.718-14.253-34.409-14.252
		c0.212,0,0.456,0.005,0.729,0.014c0.691,0.023,1.432,0.034,2.215,0.034c10.765,0,29.523-2.187,38.056-6.623
		c6.504-3.383-36.747-12.618-29.939-12.616c0.381,0,0.919,0.028,1.629,0.089c0.479,0.041,1.04,0.061,1.667,0.061
		c7.345,0,23.599-2.784,21.518-8.034c-16.839-42.466-13.125-129.332-38.805-154.489c-23.007-22.538-80.34-25.504-133.768-25.504
		c-19.089,0-37.67,0.379-54.018,0.379c-9.245,0-17.783-0.122-25.278-0.501c-1.905-0.097-3.93-0.143-6.083-0.143
		c-58.15,0-202.587,33.987-202.587,33.987s-4.053-1.197-4.005-3.979c0.064-3.811,23.443-11.561,24.506-15.222
		c0.646-2.226-22.717-9.415-20.501-10.085c41.734-12.613,160.441-41.691,213.795-56.058
		c82.492-22.208,213.796-85.176,253.333-147.045c1.585-2.479,2.56-3.601,2.98-3.6c2.009,0.001-8.625,25.557-26.043,50.947
		c-12.642,18.426-27.787,35.914-43.377,49.053c-44.302,37.343-139.938,62.24-106.11,62.24c28.987,0,125.627,5.476,195.22,5.476
		c36.463,0,65.513-1.505,73.49-6.088c45.884-26.359,80.295-96.402,81.027-129.351c0.005-0.225-0.021-0.333-0.078-0.333
		c-1.722,0-31.698,99.996-84.854,124.806c-8.683,4.052-34.207,5.338-66.077,5.338c-55.515,0-130.281-3.904-168.818-3.904
		c-8.899,0-15.866,0.208-20.219,0.721c-2.026,0.238-3.542,0.354-4.596,0.354c-15.913,0,73.814-26.442,104.487-55.228
		c65.943-61.882,64.098-96.385,80.053-115.683c16.371-19.802,54.668-27.813,64.432-44.255
		c10.812-18.208,28.504-56.805,39.049-75.169c10.738-18.703,40.697-28.26,56.622-30.264C662.897,118.583,665.87,118.4,668.735,118.4
		 M689.426,175.758c2.149,0,4.367-0.427,6.371-0.937c3.283-0.833,5.19-3.832,5.375-7.06c0.257-4.486-1.437-8.385-5.061-11.034
		c-2.019-1.475-4.415-1.99-6.826-1.99c-1.468,0-2.941,0.191-4.337,0.473c-2.935,0.593-5.049,3.125-6.206,4.829
		c-1.841,2.713-2.063,6.548-0.422,9.36c1.488,2.551,4.18,4.579,6.805,5.62C686.463,175.55,687.928,175.758,689.426,175.758
		 M668.735,113.4L668.735,113.4c-3.118,0-6.332,0.205-9.552,0.61c-9.936,1.25-21.794,4.723-31.722,9.288
		c-13.468,6.195-23.362,14.303-28.612,23.447c-5.054,8.801-11.528,21.788-18.384,35.538c-7.383,14.807-15.017,30.118-20.628,39.568
		c-4.143,6.975-15.589,12.798-27.708,18.964c-13.486,6.862-27.432,13.957-36.278,24.657c-2.716,3.285-4.948,6.95-7.019,10.968
		c-0.902-0.718-2.032-1.127-3.228-1.128c-0.001,0-0.003,0-0.005,0c-3.167,0-5.055,2.561-7.193,5.908
		c-39.026,61.07-170.51,123.396-250.42,144.909c-20.355,5.48-50.193,13.095-81.782,21.156
		C93.96,460.619,39.937,474.405,14.045,482.23c-2.126,0.643-3.611,2.537-3.698,4.714c-0.149,3.747,3.157,5.183,5.345,6.132
		c1.525,0.662,3.554,1.456,5.703,2.296c1.439,0.563,3.409,1.334,5.294,2.11c-1.586,0.797-3.271,1.604-4.669,2.274
		c-9.633,4.615-15.447,7.4-15.533,12.481c-0.083,4.86,4.036,7.811,7.588,8.859c0.462,0.137,0.939,0.205,1.417,0.205
		c0.384,0,0.769-0.044,1.146-0.133c1.438-0.339,144.538-33.854,201.442-33.854c2.081,0,4.042,0.046,5.83,0.136
		c6.834,0.347,14.947,0.508,25.531,0.508c7.883,0,16.188-0.087,24.98-0.179c9.415-0.099,19.15-0.2,29.038-0.2
		c52.264,0,108.612,2.86,130.269,24.075c13.851,13.569,18.748,49.234,23.483,83.726c3.324,24.21,6.759,49.218,13.471,67.212
		c-2.943,1.425-10.395,3.015-16.168,3.015c-0.61,0-1.014-0.023-1.244-0.043c-0.849-0.071-1.521-0.106-2.052-0.106
		c-4.912-0.001-5.615,3.982-5.68,4.437c-0.132,0.934-0.253,4.108,3.724,5.745c0.563,0.232,1.299,0.491,2.317,0.814
		c1.708,0.543,4,1.202,6.654,1.966c2.651,0.763,7.093,2.041,11.126,3.335c-8.048,1.834-18.405,2.942-26.258,2.942
		c-0.724,0-1.413-0.01-2.048-0.031c-0.337-0.012-0.636-0.017-0.896-0.017c-4.983-0.001-5.957,3.147-6.144,4.501
		c-0.611,4.424,3.697,5.791,5.536,6.375c1.421,0.45,3.378,1.002,5.645,1.64c4.731,1.334,10.62,2.993,15.818,4.88
		c5.532,2.009,7.881,3.422,8.836,4.146c-0.163,0.806-0.492,1.95-0.713,2.721c-0.467,1.625-0.949,3.305-1.108,4.917
		c-0.479,4.854,2.357,6.799,3.599,7.41c2.829,1.393,6.392,2.014,11.551,2.014c2.175,0,4.402-0.106,6.557-0.208
		c2.043-0.098,3.973-0.189,5.748-0.189c2.301,0,3.994,0.167,5.034,0.496c2.974,0.94,8.083,4.366,12.188,7.118
		c6.574,4.407,9.871,6.525,12.976,6.525c1.749,0,3.321-0.69,4.427-1.943c0.813-0.92,1.715-2.535,1.405-5.006
		c-0.186-1.491-0.712-3.278-1.321-5.348c-0.382-1.295-0.981-3.33-1.306-4.892c3.778-0.632,8.117-0.952,12.938-0.952
		c12.95,0,27.688,2.256,40.691,4.246c5.676,0.868,11.036,1.688,15.924,2.278c0.873,0.105,1.531,0.154,2.072,0.154
		c3.275,0,5.095-2.166,5.444-4.313c0.241-1.477,0.072-4.21-3.76-5.934c-0.68-0.306-1.594-0.665-2.875-1.129
		c-2.223-0.806-5.297-1.835-8.856-3.026c-7.852-2.628-22.327-7.475-30.118-11.235c1.734-1.343,3.223-3.042,3.407-5.457
		c0.113-1.451-0.288-2.726-0.968-3.876c4.522-0.534,9.639-0.804,15.299-0.804c7.001,0,14.907,0.4,24.171,1.225
		c1.595,0.142,2.709,0.207,3.509,0.207c4.997,0,5.69-3.795,5.779-4.556c0.226-1.941-0.398-4.541-4.65-5.894
		c-0.863-0.274-2.05-0.603-3.734-1.032c-3.022-0.771-7.367-1.792-12.398-2.976c-22.726-5.346-65.028-15.297-77.459-23.954
		c-10.996-7.66-18.683-53.314-16.909-75.473c1.991-24.926,11.111-61.656,22.395-62.867c27.989-3.005,54.797-13.562,79.676-31.376
		c21.877-15.666,41.632-36.406,58.715-61.646c15.158-22.397,27.557-47.578,35.854-72.82c7.973-24.257,11.715-47.03,10.822-65.855
		c-0.411-8.671,5.123-23.914,13.772-37.93c8.868-14.371,19.337-24.644,26.671-26.172c3.096-0.645,7.141-0.958,12.365-0.958
		c8.194,0,17.838,0.767,28.049,1.579c10.598,0.843,21.557,1.714,31.274,1.714c6.572,0,11.942-0.396,16.416-1.212
		c2.048-0.374,3.469-0.637,4.524-0.889c2.362-0.564,5.195-1.955,5.272-5.374c0.033-1.437-0.426-2.642-1.367-3.608
		c1.833-0.909,2.896-2.683,3.056-4.441c0.171-1.879,0.569-6.28-19.117-19.488c-5.783-3.88-20.505-13.137-32.27-15.288
		c-13.995-2.56-41.088-11.108-51.687-18.676c-3.599-2.57-7.492-6.043-11.614-9.721C714.775,129.413,696.826,113.401,668.735,113.4
		L668.735,113.4L668.735,113.4z M689.426,170.758c-0.984,0-1.811-0.13-2.454-0.386c-1.815-0.72-3.515-2.09-4.332-3.492
		c-0.648-1.11-0.542-2.881,0.24-4.034c1.043-1.536,2.187-2.559,3.059-2.735c1.229-0.248,2.354-0.374,3.347-0.374
		c1.662,0,2.931,0.336,3.877,1.027c2.166,1.584,3.183,3.842,3.018,6.711c-0.056,0.979-0.512,2.22-1.613,2.5
		C692.493,170.501,690.813,170.758,689.426,170.758L689.426,170.758z"/>
</g>
</svg>
