<?xml version="1.0" encoding="UTF-8" standalone="no"?>
<svg
   xmlns:dc="http://purl.org/dc/elements/1.1/"
   xmlns:cc="http://creativecommons.org/ns#"
   xmlns:rdf="http://www.w3.org/1999/02/22-rdf-syntax-ns#"
   xmlns:svg="http://www.w3.org/2000/svg"
   xmlns="http://www.w3.org/2000/svg"
   xmlns:sodipodi="http://sodipodi.sourceforge.net/DTD/sodipodi-0.dtd"
   xmlns:inkscape="http://www.inkscape.org/namespaces/inkscape"
   inkscape:version="1.0 (4035a4fb49, 2020-05-01)"
   inkscape:export-ydpi="115.59818"
   inkscape:export-xdpi="115.59818"
   inkscape:export-filename="C:\Kreatywne\Unity\BirdSim\Bird-Simulator\BirdSim\Assets\OtherMaterials\logo1024x1024.png"
   sodipodi:docname="logo.svg"
   xml:space="preserve"
   enable-background="new 0 0 850.394 850.394"
   viewBox="0 0 850.394 850.394"
   height="850.394px"
   width="850.394px"
   y="0px"
   x="0px"
   id="Warstwa_3"
   version="1.1"><metadata
   id="metadata13"><rdf:RDF><cc:Work
       rdf:about=""><dc:format>image/svg+xml</dc:format><dc:type
         rdf:resource="http://purl.org/dc/dcmitype/StillImage" /></cc:Work></rdf:RDF></metadata><defs
   id="defs11" /><sodipodi:namedview
   inkscape:current-layer="Warstwa_3"
   inkscape:window-maximized="1"
   inkscape:window-y="-8"
   inkscape:window-x="1912"
   inkscape:cy="425.19699"
   inkscape:cx="425.19699"
   inkscape:zoom="1.1853329"
   showgrid="false"
   id="namedview9"
   inkscape:window-height="1377"
   inkscape:window-width="2560"
   inkscape:pageshadow="2"
   inkscape:pageopacity="0"
   guidetolerance="10"
   gridtolerance="10"
   objecttolerance="10"
   borderopacity="1"
   bordercolor="#666666"
   pagecolor="#ffffff" />
<g
   id="g6">
	<path
   id="path2"
   d="m 525.679,734.495 c -2.371,0 -5.603,-2.093 -11.583,-6.102 -4.459,-2.989 -9.513,-6.377 -12.826,-7.425 -1.304,-0.413 -3.196,-0.613 -5.789,-0.613 -1.834,0 -3.793,0.093 -5.866,0.192 -2.125,0.101 -4.323,0.205 -6.438,0.205 -4.757,0 -7.979,-0.542 -10.446,-1.756 -3.408,-1.679 -2.18,-5.957 -1.192,-9.395 0.393,-1.365 1.041,-3.624 0.899,-4.383 -2.772,-3.757 -18.82,-8.278 -26.564,-10.461 -2.245,-0.632 -4.184,-1.179 -5.565,-1.617 -1.845,-0.585 -4.139,-1.313 -3.816,-3.648 0.324,-2.344 2.839,-2.344 3.666,-2.344 0.236,0 0.507,0.005 0.813,0.015 0.666,0.022 1.379,0.033 2.132,0.033 9.036,0 25.188,-1.656 34.322,-5.191 -4.359,-1.921 -13.561,-4.567 -18.496,-5.986 -2.637,-0.759 -4.914,-1.414 -6.59,-1.947 -2.395,-0.761 -4.655,-1.479 -4.324,-3.828 0.097,-0.688 0.604,-2.287 3.204,-2.287 0.46,0 1.063,0.032 1.841,0.099 0.406,0.034 0.896,0.052 1.455,0.052 8.133,0 18.23,-2.739 19.182,-4.639 -7.063,-17.85 -10.593,-43.562 -14.007,-68.428 -4.794,-34.908 -9.75,-71.004 -24.212,-85.171 -22.299,-21.845 -79.249,-24.79 -132.018,-24.79 -9.901,0 -19.643,0.102 -29.064,0.2 -8.786,0.092 -17.084,0.179 -24.955,0.179 -10.54,0 -18.612,-0.16 -25.404,-0.504 -1.829,-0.093 -3.833,-0.14 -5.957,-0.14 -57.198,0 -200.573,33.582 -202.015,33.921 -0.188,0.044 -0.381,0.066 -0.573,0.066 -0.239,0 -0.478,-0.034 -0.708,-0.103 -2.183,-0.645 -5.859,-2.723 -5.796,-6.42 0.057,-3.386 4.622,-5.722 14.113,-10.27 2.947,-1.412 7.039,-3.372 9.216,-4.765 -2.529,-1.274 -7.196,-3.101 -10.01,-4.202 -8.092,-3.166 -9.55,-3.736 -9.46,-6 0.045,-1.131 0.8,-2.081 1.923,-2.42 25.839,-7.81 79.834,-21.589 132.051,-34.913 31.599,-8.064 61.446,-15.681 81.818,-21.166 80.303,-21.618 212.51,-84.375 251.877,-145.977 2.356,-3.688 3.498,-4.754 5.087,-4.754 1.003,0 1.919,0.556 2.39,1.451 0.309,0.585 0.896,1.7 -1.205,7.397 3.463,-7.811 6.51,-14.171 10.993,-19.594 8.516,-10.301 22.227,-17.276 35.485,-24.022 12.451,-6.335 24.212,-12.318 28.724,-19.916 5.658,-9.53 13.313,-24.882 20.715,-39.729 6.839,-13.716 13.299,-26.672 18.315,-35.409 10.961,-19.091 40.977,-29.297 58.478,-31.5 3.116,-0.392 6.225,-0.591 9.24,-0.591 27.138,0 44.692,15.661 58.798,28.244 4.174,3.724 8.117,7.241 11.826,9.89 11.038,7.882 38.127,16.438 52.689,19.101 11.303,2.067 25.673,11.112 31.326,14.905 6.893,4.625 18.399,13.007 18.021,17.187 -0.126,1.388 -1.213,2.79 -3.356,2.79 v 0 c -0.722,0 -1.596,-0.16 -2.673,-0.487 -18.534,-5.644 -43.501,-11.864 -60.597,-15.519 28.896,10.672 47.769,15.007 56.542,17.023 6.821,1.567 8.441,1.939 8.386,4.41 -0.056,2.458 -1.994,2.812 -7.746,3.86 -4.324,0.789 -9.548,1.171 -15.967,1.171 -9.619,0 -20.527,-0.867 -31.076,-1.706 -10.262,-0.816 -19.955,-1.586 -28.247,-1.586 -5.399,0 -9.61,0.331 -12.876,1.011 -18.159,3.783 -43.366,46.948 -42.431,66.667 1.853,39.071 -16.302,92.908 -46.25,137.155 -36.369,53.735 -84.877,86.386 -136.587,91.937 -14.796,1.589 -22.976,44.582 -24.619,65.154 -1.648,20.599 4.964,68.662 17.973,77.723 12.822,8.931 55.427,18.952 78.315,24.337 5.019,1.181 9.353,2.2 12.354,2.965 4.673,1.191 6.807,1.735 6.519,4.215 -0.102,0.876 -0.665,2.345 -3.296,2.345 -0.714,0 -1.789,-0.065 -3.288,-0.198 -9.337,-0.83 -17.315,-1.234 -24.392,-1.234 -7.751,0 -14.522,0.5 -20.192,1.487 1.902,1.749 3.527,3.455 3.368,5.504 -0.181,2.36 -2.574,3.863 -4.89,5.316 -0.25,0.157 -0.542,0.34 -0.831,0.527 6.316,4.097 23.471,9.839 34.131,13.408 3.544,1.186 6.605,2.211 8.799,3.006 3.137,1.137 5.402,1.957 5.02,4.311 -0.061,0.369 -0.487,2.215 -2.978,2.215 -0.438,0 -1.002,-0.043 -1.772,-0.136 -4.849,-0.586 -10.189,-1.403 -15.845,-2.269 -13.091,-2.003 -27.929,-4.274 -41.07,-4.274 -6.05,0 -11.183,0.467 -15.668,1.426 -0.154,1.545 1.038,5.593 1.637,7.624 0.579,1.965 1.079,3.661 1.239,4.953 0.193,1.545 -0.327,2.506 -0.799,3.04 -0.63,0.708 -1.536,1.098 -2.557,1.098 z M 346.304,441.027 c 7.187,0.265 15.056,0.569 23.476,0.895 41.551,1.607 93.261,3.608 135.511,3.607 41.292,0 65.599,-1.937 72.245,-5.756 35.948,-20.651 65.434,-69.859 75.796,-105.096 -12.779,31.192 -39.023,86.74 -77.398,104.651 -8.148,3.802 -29.48,5.572 -67.134,5.572 -30.324,0 -66.868,-1.179 -99.111,-2.219 -23.777,-0.767 -46.387,-1.496 -63.385,-1.654 z m -38.541,-1.024 c 0.634,0.031 1.396,0.051 2.308,0.051 0.292,0 0.591,0.001 0.896,0.002 -0.051,-0.141 -0.093,-0.291 -0.124,-0.452 -0.084,-0.429 -0.113,-0.818 -0.047,-1.194 -1.167,0.578 -2.19,1.113 -3.033,1.593 z M 423.59,377.129 c -1.929,1.765 -3.863,3.465 -5.798,5.096 -9.359,7.889 -20.982,15.229 -33.182,21.896 13.231,-6.777 25.388,-14.146 33.331,-21.6 1.943,-1.823 3.825,-3.62 5.649,-5.392 z m 57.261,-77.182 c -3.441,6.939 -10.009,19.284 -19.231,32.728 -5.104,7.44 -10.459,14.528 -15.975,21.164 19.007,-22.067 28.55,-39.582 35.206,-53.892 z M 689.285,157.236 c -1.158,0 -2.45,0.143 -3.842,0.424 -1.978,0.4 -3.611,2.278 -4.633,3.783 -1.32,1.946 -1.46,4.762 -0.331,6.696 1.1,1.884 3.232,3.63 5.567,4.556 0.94,0.374 2.077,0.563 3.379,0.563 1.597,0 3.479,-0.281 5.755,-0.86 2.413,-0.613 3.391,-2.958 3.495,-4.78 0.213,-3.718 -1.184,-6.786 -4.04,-8.873 -1.388,-1.015 -3.138,-1.509 -5.35,-1.509 z"
   fill="#ffffff" />
	<path
   id="path4"
   d="m 668.735,118.4 c 34.241,10e-4 52.938,26.078 69.171,37.668 11.623,8.3 39.644,16.956 53.692,19.526 19.201,3.511 53.171,29.922 46.44,29.922 -0.456,0 -1.099,-0.121 -1.944,-0.379 -29.125,-8.869 -72.535,-18.808 -79.828,-18.807 -1.874,0 -1.364,0.656 2.385,2.156 67.657,27.055 90.424,23.155 72.852,26.358 -4.489,0.818 -9.771,1.131 -15.519,1.131 -18.648,0 -42.18,-3.292 -59.324,-3.292 -5.134,0 -9.699,0.295 -13.385,1.063 -19.553,4.073 -45.393,48.692 -44.418,69.233 3.417,72.077 -65.409,214.122 -180.606,226.488 -18.354,1.971 -25.681,52.869 -26.845,67.44 -1.658,20.719 4.966,70.173 19.036,79.974 19.906,13.865 105.335,29.31 95.32,29.31 -0.631,0 -1.64,-0.062 -3.066,-0.188 -7.954,-0.707 -16.419,-1.244 -24.613,-1.244 -8.777,0 -17.244,0.616 -24.436,2.297 -2.11,0.492 5.287,4.84 5.119,7.001 -0.178,2.322 -8.264,4.968 -6.59,6.59 7.599,7.363 54.207,19.887 48.333,19.887 -0.325,0 -0.812,-0.038 -1.474,-0.118 -16.147,-1.949 -38.229,-6.561 -57.214,-6.561 -5.979,0 -11.655,0.458 -16.736,1.601 -3.727,0.839 0.991,11.418 1.464,15.211 0.116,0.932 -0.208,1.329 -0.871,1.329 -3.509,0 -16.483,-11.143 -23.655,-13.41 -1.77,-0.561 -4.034,-0.729 -6.543,-0.729 -3.841,0 -8.248,0.397 -12.305,0.397 -3.604,0 -6.935,-0.314 -9.342,-1.499 -2.888,-1.422 2.547,-10.195 0.731,-12.853 -5.024,-7.362 -42.718,-14.253 -34.409,-14.252 0.212,0 0.456,0.005 0.729,0.014 0.691,0.023 1.432,0.034 2.215,0.034 10.765,0 29.523,-2.187 38.056,-6.623 6.504,-3.383 -36.747,-12.618 -29.939,-12.616 0.381,0 0.919,0.028 1.629,0.089 0.479,0.041 1.04,0.061 1.667,0.061 7.345,0 23.599,-2.784 21.518,-8.034 -16.839,-42.466 -13.125,-129.332 -38.805,-154.489 -23.007,-22.538 -80.34,-25.504 -133.768,-25.504 -19.089,0 -37.67,0.379 -54.018,0.379 -9.245,0 -17.783,-0.122 -25.278,-0.501 -1.905,-0.097 -3.93,-0.143 -6.083,-0.143 -58.15,0 -202.587,33.987 -202.587,33.987 0,0 -4.053,-1.197 -4.005,-3.979 0.064,-3.811 23.443,-11.561 24.506,-15.222 0.646,-2.226 -22.717,-9.415 -20.501,-10.085 41.734,-12.613 160.441,-41.691 213.795,-56.058 82.492,-22.208 213.796,-85.176 253.333,-147.045 1.585,-2.479 2.56,-3.601 2.98,-3.6 2.009,10e-4 -8.625,25.557 -26.043,50.947 -12.642,18.426 -27.787,35.914 -43.377,49.053 -44.302,37.343 -139.938,62.24 -106.11,62.24 28.987,0 125.627,5.476 195.22,5.476 36.463,0 65.513,-1.505 73.49,-6.088 45.884,-26.359 80.295,-96.402 81.027,-129.351 0.005,-0.225 -0.021,-0.333 -0.078,-0.333 -1.722,0 -31.698,99.996 -84.854,124.806 -8.683,4.052 -34.207,5.338 -66.077,5.338 -55.515,0 -130.281,-3.904 -168.818,-3.904 -8.899,0 -15.866,0.208 -20.219,0.721 -2.026,0.238 -3.542,0.354 -4.596,0.354 -15.913,0 73.814,-26.442 104.487,-55.228 65.943,-61.882 64.098,-96.385 80.053,-115.683 16.371,-19.802 54.668,-27.813 64.432,-44.255 10.812,-18.208 28.504,-56.805 39.049,-75.169 10.738,-18.703 40.697,-28.26 56.622,-30.264 3.09,-0.392 6.063,-0.575 8.928,-0.575 m 20.691,57.358 c 2.149,0 4.367,-0.427 6.371,-0.937 3.283,-0.833 5.19,-3.832 5.375,-7.06 0.257,-4.486 -1.437,-8.385 -5.061,-11.034 -2.019,-1.475 -4.415,-1.99 -6.826,-1.99 -1.468,0 -2.941,0.191 -4.337,0.473 -2.935,0.593 -5.049,3.125 -6.206,4.829 -1.841,2.713 -2.063,6.548 -0.422,9.36 1.488,2.551 4.18,4.579 6.805,5.62 1.338,0.531 2.803,0.739 4.301,0.739 M 668.735,113.4 v 0 c -3.118,0 -6.332,0.205 -9.552,0.61 -9.936,1.25 -21.794,4.723 -31.722,9.288 -13.468,6.195 -23.362,14.303 -28.612,23.447 -5.054,8.801 -11.528,21.788 -18.384,35.538 -7.383,14.807 -15.017,30.118 -20.628,39.568 -4.143,6.975 -15.589,12.798 -27.708,18.964 -13.486,6.862 -27.432,13.957 -36.278,24.657 -2.716,3.285 -4.948,6.95 -7.019,10.968 -0.902,-0.718 -2.032,-1.127 -3.228,-1.128 -10e-4,0 -0.003,0 -0.005,0 -3.167,0 -5.055,2.561 -7.193,5.908 -39.026,61.07 -170.51,123.396 -250.42,144.909 -20.355,5.48 -50.193,13.095 -81.782,21.156 -52.244,13.334 -106.267,27.12 -132.159,34.945 -2.126,0.643 -3.611,2.537 -3.698,4.714 -0.149,3.747 3.157,5.183 5.345,6.132 1.525,0.662 3.554,1.456 5.703,2.296 1.439,0.563 3.409,1.334 5.294,2.11 -1.586,0.797 -3.271,1.604 -4.669,2.274 -9.633,4.615 -15.447,7.4 -15.533,12.481 -0.083,4.86 4.036,7.811 7.588,8.859 0.462,0.137 0.939,0.205 1.417,0.205 0.384,0 0.769,-0.044 1.146,-0.133 1.438,-0.339 144.538,-33.854 201.442,-33.854 2.081,0 4.042,0.046 5.83,0.136 6.834,0.347 14.947,0.508 25.531,0.508 7.883,0 16.188,-0.087 24.98,-0.179 9.415,-0.099 19.15,-0.2 29.038,-0.2 52.264,0 108.612,2.86 130.269,24.075 13.851,13.569 18.748,49.234 23.483,83.726 3.324,24.21 6.759,49.218 13.471,67.212 -2.943,1.425 -10.395,3.015 -16.168,3.015 -0.61,0 -1.014,-0.023 -1.244,-0.043 -0.849,-0.071 -1.521,-0.106 -2.052,-0.106 -4.912,-10e-4 -5.615,3.982 -5.68,4.437 -0.132,0.934 -0.253,4.108 3.724,5.745 0.563,0.232 1.299,0.491 2.317,0.814 1.708,0.543 4,1.202 6.654,1.966 2.651,0.763 7.093,2.041 11.126,3.335 -8.048,1.834 -18.405,2.942 -26.258,2.942 -0.724,0 -1.413,-0.01 -2.048,-0.031 -0.337,-0.012 -0.636,-0.017 -0.896,-0.017 -4.983,-10e-4 -5.957,3.147 -6.144,4.501 -0.611,4.424 3.697,5.791 5.536,6.375 1.421,0.45 3.378,1.002 5.645,1.64 4.731,1.334 10.62,2.993 15.818,4.88 5.532,2.009 7.881,3.422 8.836,4.146 -0.163,0.806 -0.492,1.95 -0.713,2.721 -0.467,1.625 -0.949,3.305 -1.108,4.917 -0.479,4.854 2.357,6.799 3.599,7.41 2.829,1.393 6.392,2.014 11.551,2.014 2.175,0 4.402,-0.106 6.557,-0.208 2.043,-0.098 3.973,-0.189 5.748,-0.189 2.301,0 3.994,0.167 5.034,0.496 2.974,0.94 8.083,4.366 12.188,7.118 6.574,4.407 9.871,6.525 12.976,6.525 1.749,0 3.321,-0.69 4.427,-1.943 0.813,-0.92 1.715,-2.535 1.405,-5.006 -0.186,-1.491 -0.712,-3.278 -1.321,-5.348 -0.382,-1.295 -0.981,-3.33 -1.306,-4.892 3.778,-0.632 8.117,-0.952 12.938,-0.952 12.95,0 27.688,2.256 40.691,4.246 5.676,0.868 11.036,1.688 15.924,2.278 0.873,0.105 1.531,0.154 2.072,0.154 3.275,0 5.095,-2.166 5.444,-4.313 0.241,-1.477 0.072,-4.21 -3.76,-5.934 -0.68,-0.306 -1.594,-0.665 -2.875,-1.129 -2.223,-0.806 -5.297,-1.835 -8.856,-3.026 -7.852,-2.628 -22.327,-7.475 -30.118,-11.235 1.734,-1.343 3.223,-3.042 3.407,-5.457 0.113,-1.451 -0.288,-2.726 -0.968,-3.876 4.522,-0.534 9.639,-0.804 15.299,-0.804 7.001,0 14.907,0.4 24.171,1.225 1.595,0.142 2.709,0.207 3.509,0.207 4.997,0 5.69,-3.795 5.779,-4.556 0.226,-1.941 -0.398,-4.541 -4.65,-5.894 -0.863,-0.274 -2.05,-0.603 -3.734,-1.032 -3.022,-0.771 -7.367,-1.792 -12.398,-2.976 -22.726,-5.346 -65.028,-15.297 -77.459,-23.954 -10.996,-7.66 -18.683,-53.314 -16.909,-75.473 1.991,-24.926 11.111,-61.656 22.395,-62.867 27.989,-3.005 54.797,-13.562 79.676,-31.376 21.877,-15.666 41.632,-36.406 58.715,-61.646 15.158,-22.397 27.557,-47.578 35.854,-72.82 7.973,-24.257 11.715,-47.03 10.822,-65.855 -0.411,-8.671 5.123,-23.914 13.772,-37.93 8.868,-14.371 19.337,-24.644 26.671,-26.172 3.096,-0.645 7.141,-0.958 12.365,-0.958 8.194,0 17.838,0.767 28.049,1.579 10.598,0.843 21.557,1.714 31.274,1.714 6.572,0 11.942,-0.396 16.416,-1.212 2.048,-0.374 3.469,-0.637 4.524,-0.889 2.362,-0.564 5.195,-1.955 5.272,-5.374 0.033,-1.437 -0.426,-2.642 -1.367,-3.608 1.833,-0.909 2.896,-2.683 3.056,-4.441 0.171,-1.879 0.569,-6.28 -19.117,-19.488 -5.783,-3.88 -20.505,-13.137 -32.27,-15.288 -13.995,-2.56 -41.088,-11.108 -51.687,-18.676 -3.599,-2.57 -7.492,-6.043 -11.614,-9.721 -14.423,-12.864 -32.372,-28.876 -60.463,-28.877 z m 20.691,57.358 c -0.984,0 -1.811,-0.13 -2.454,-0.386 -1.815,-0.72 -3.515,-2.09 -4.332,-3.492 -0.648,-1.11 -0.542,-2.881 0.24,-4.034 1.043,-1.536 2.187,-2.559 3.059,-2.735 1.229,-0.248 2.354,-0.374 3.347,-0.374 1.662,0 2.931,0.336 3.877,1.027 2.166,1.584 3.183,3.842 3.018,6.711 -0.056,0.979 -0.512,2.22 -1.613,2.5 -2.075,0.526 -3.755,0.783 -5.142,0.783 z"
   fill="#606060" />
</g>
</svg>
